<?xml version="1.0" encoding="utf-8"?>
<!-- Generator: Adobe Illustrator 16.0.0, SVG Export Plug-In . SVG Version: 6.00 Build 0)  -->
<!DOCTYPE svg PUBLIC "-//W3C//DTD SVG 1.1//EN" "http://www.w3.org/Graphics/SVG/1.1/DTD/svg11.dtd">
<svg version="1.1" id="Layer_1" xmlns="http://www.w3.org/2000/svg" xmlns:xlink="http://www.w3.org/1999/xlink" x="0px" y="0px"
	 width="864px" height="864px" viewBox="0 0 864 864" enable-background="new 0 0 864 864" xml:space="preserve">
<g>
	<g>
		<path fill-rule="evenodd" clip-rule="evenodd" d="M426.373,276.919C426.692,276.282,426.398,276.569,426.373,276.919
			L426.373,276.919z"/>
		<path fill-rule="evenodd" clip-rule="evenodd" d="M426.373,276.919c-0.028,0.056-0.052,0.106-0.09,0.178
			c0.03,0.017,0.061,0.034,0.091,0.05c-0.003-0.051-0.003-0.1-0.006-0.15C426.367,276.971,426.371,276.945,426.373,276.919z"/>
		<path fill-rule="evenodd" clip-rule="evenodd" d="M693.447,632.573c-7.802-55.414-19.048-110.146-36.236-163.762
			c-19.329-60.293-44.958-117.903-82.468-170.455c-32.643-45.731-71.285-85.793-123.854-112.409
			c-1.567-0.793-3.385-2.204-3.86-3.674c-6.037-18.669-19.125-32.807-33.408-46.243c-1.476-1.387-3.766-3.797-3.321-4.911
			c3.789-9.505-3.41-14.52-8.844-20.317c-1.449-1.545-4.225-3.3-4.037-4.677c1.195-8.732-5.728-11.709-11.731-15.245
			c-12.49-7.356-25.039-14.63-37.721-21.69c-6.688-3.722-13.585-7.29-20.647-10.151c-16.759-6.791-33.149-10.396-50.544-13.246
			c-5.606,0-11.212,0-16.818,0c-16.924,0.555-29.053,5.472-42.496,10.961c-8.096,3.306-16.533,5.793-25.049,7.718
			c-18.458,4.172-25.509,13.346-22.509,30.532c0.262,1.5,0.751,3.236,0.165,4.562c-6.035,13.654-11.608,24.144-14.384,42.133
			c0,5.241,0,10.481,0,15.722c1.465,10.871,7.542,30.801,15.806,42.449c6.698,9.441,14.9,17.948,23.076,27.625
			c-0.697-19.655-2.251-37.159-1.675-54.602c0.58-17.557,11.908-30.19,25.343-41.311c11.014,9.017,11.358,12.538,3.704,22.77
			c-6.283,8.399-15.578,11.28-25.955,12.813c0.301,1.359,0.316,2.438,0.781,3.306c0.745,1.39,1.679,2.722,2.719,3.94
			c10.358,12.138,24.646,16.523,40.47,17.914c2.455,0.215,5.304,0.126,7.225,1.272c3.858,2.301,9.023,20.791,7.768,25.216
			c-8.239,29.038-8.864,57.905,2.882,86.33c16.016,38.755,47.876,62.782,86.358,80.5c8.009,3.688,16.25,6.937,25.886,11.025
			c-3.052,0.686-4.34,1.006-5.643,1.262c-17.273,3.393-26.038,13.413-25.682,29.757c0.339,15.533,7.303,29.086,14.985,43.172
			c2.546-7.299,4.138-14.205,7.272-20.433c11.074-21.996,35.375-26.997,53.292-10.738c7.148,6.487,13.748,13.936,18.773,21.946
			c12.805,20.41,29.48,37.411,48.71,52.509c7.684,6.032,15.707,11.887,22.32,18.86c8.723,9.2,7.789,17.524-0.992,26.43
			c-5.121,5.193-10.456,10.266-14.995,15.886c-11.888,14.723-23.128,29.794-17.966,46.19
			c-12.941,13.505-24.751,25.406-36.031,37.729c-9.521,10.401-17.522,21.648-19.494,35.829c-0.393,2.82-2.337,6.06-4.65,7.94
			c-14.756,11.998-30.18,23.297-44.598,35.63c-5.841,4.996-9.717,12.78-13.849,18.216c-1.625,2.139-10.945,14.271-20.021,17.972
			c-7.427,3.027-14.617,6.767-21.798,10.052c-18.719,8.563-32.579,17.386-45.245,29.441c-4.82,4.588-11.591,12.857-10.28,18.103
			c0.561,0,3.535-0.517,4.096-0.517c8.842-0.989,17.674-2.062,26.527-2.951c57.206-5.74,113.128-15.88,164.651-41.405
			c52.437-25.979,87.02-65.996,106.66-117.902c12.947-34.22,18.615-69.761,21.977-105.931c7.805,2.059,22.905,8.432,24.824,6.548
			c3.653-4.345-5.567-22.723-7.912-32.291c9.599-3.851-1.108-16.361-0.746-24.045c3.461-1.112,4.772-0.785,3.546-6.364
			c-3.92-17.83-9.08-34.716-19.249-50.785c6.112,2.354,12.159,4.898,16.84,8.856c15.575,13.173,24.89,30.44,31.025,48.615
			c12.244,36.273,22.597,73.099,34.295,109.539c4.538,14.136,10.047,28.068,16.319,41.605c1.816,3.919,6.897,12.306,12.688,10.801
			c3.323-3.085,5.459-8.069,5.83-12.518c0-5.241,0-10.481,0-15.723C694.852,642.828,694.17,637.697,693.447,632.573z"/>
	</g>
	<g>
		<path fill-rule="evenodd" clip-rule="evenodd" fill="#ED1C24" d="M338.251,188.445c-30.595,28.375-33.998,37.623-20.288,58.958
			c-4.724,1.74-6.672,2.519-10.408,0.727c-2.084,10.271-6.395,10.949-14.998,10.72c-9.399,14.155-14.386,10.944-21.916,5.813
			c-13.668,4.25-19.086,0.59-17.68-12.618c0.99-9.3,1.978-18.787,4.853-27.655c1.632-5.03,6.155-11.259,10.979-12.951
			c10.267-3.601,13.778-10.585,16.124-19.139c1.31-4.778,2.017-9.732,3.7-14.383c2.809-7.761,7.71-9.274,13.428-3.491
			c7.438,7.523,14.982,8.224,23.585,2.817C329.996,181.116,334.124,184.781,338.251,188.445z"/>
		<g>
			<path fill-rule="evenodd" clip-rule="evenodd" fill="#ED1C24" d="M443.12,182.454c-18.877-6.876-36.512-12.64-55.11-10.574
				c-12.244,1.36-24.585,4.591-36.019,8.96c-11.555,4.416-15.531,4.296-21.478-5.985c-0.659-1.139-1.397-2.238-2.412-3.856
				c-1.573,1.012-3.05,1.955-4.519,2.909c-6.35,4.123-11.965,4.272-17.895-1.318c-9.603-9.052-17.369-6.924-21.192,5.365
				c-2.018,6.483-3.65,13.075-5.792,19.521c-1.757,5.29-4.879,9.051-11.756,9.439c-2.185,0.124-4.177,3.247-6.525,5.224
				c-2.971-6.466-5.907-12.854-8.808-19.168c11.078-10.418,11.485-11.369,12.251-28.402c25.204-0.464,35.354-9.1,38.509-32.762
				c1.576-11.822,7.169-16.862,20.685-18.641c-11.665-31.124-50.196-47.801-92.155-30.427c-2.748-9.377-10.853-14.584-20.979-19.668
				c17.412-9.595,40.913-13.836,61.957-13.307c26.981,0.678,51.184,9.513,73.893,22.539c13.064,7.493,26.187,14.898,39.192,22.479
				c8.109,4.725,9.023,6.773,7.082,10.878c5.598,7.338,13.904,11.171,15.494,20.778c0.149,0.902-2.379,3.521-3.979,5.754
				C419.223,145.981,434.496,160.792,443.12,182.454z"/>
			<path fill-rule="evenodd" clip-rule="evenodd" fill="#ED1C24" d="M259.025,828.128c8.655-15.235,21.25-23.266,34.229-30.157
				c17.667-9.383,36.206-17.336,54.447-25.756c1.882-0.869,4.329-1.217,6.435-1.03c51.787,4.578,95.939-12.242,135.178-42.38
				c26.918-20.672,47.367-46.393,64.697-74.418c1.244-2.013,2.562-3.984,5.255-5.503c-3.034,8.553-5.724,17.229-9.159,25.639
				c-24.729,60.541-70.749,100.843-135.02,123.725c-39.092,13.918-79.603,21.952-121.14,25.882
				C282.911,825.173,271.923,826.639,259.025,828.128z"/>
			<path fill-rule="evenodd" clip-rule="evenodd" fill="#ED1C24" d="M597.556,565.13c-32.223-8.871-61.686-20.908-89.022-37.461
				c-24.878-15.063-46.574-33.277-63.888-55.87c-6.071-7.922-9.62-16.172-10.062-26.559c-0.434-10.161-5.292-20.158-7.512-27.827
				c6.958,2.713,17.148,6.486,27.113,10.721c2.332,0.99,4.146,3.374,5.787,5.406c28.707,35.572,61.934,66.536,103.504,89.035
				c2.418,1.31,4.627,3.323,7.222,3.924c16.702,3.867,22.503,15.707,25.461,29.731C596.685,558.732,596.959,561.282,597.556,565.13z
				"/>
			<path fill-rule="evenodd" clip-rule="evenodd" fill="#ED1C24" d="M411.615,405.817c-22.533-8.1-45.713-14.923-67.455-24.578
				c-39.633-17.598-70.922-43.614-85.199-83.972c-3.188-9.011-4.436-18.623-6.886-29.307c9.731,3.975,15.989,6.575,26.681,6.313
				c2.093,0.398,5.024-0.098,6.491-1.154c8.477-6.108,16.498-12.289,25.051-18.765c3.323-2.516,10.017-4.284,13.05-2.754
				c16.782,8.466,32.81,18.296,42.416,34.483c2.632,4.435,4.483,9.731,4.93,14.769C374.104,339.344,383.53,375.615,411.615,405.817z
				"/>
		</g>
		<path fill-rule="evenodd" clip-rule="evenodd" fill="#ED1C24" d="M218.709,123.719c-25.034-26.986-27.993-28.958-44.043-29.537
			c-3.821-5.538-1.944-11.039,1.105-16.052c4.08-6.708,21.829-13.166,30.56-11.675c9.828,1.677,18.792,10.276,20.665,20.502
			C229.366,99.898,224.777,111.584,218.709,123.719z"/>
		<path fill-rule="evenodd" clip-rule="evenodd" fill="#ED1C24" d="M480.572,259.576c1.15,7.691,2.913,14.334,2.981,20.992
			c0.145,14.043-8.479,20.471-22.137,15.136c-12.347-4.823-23.499-12.316-35.134-18.607c0.508-0.943,0.061-0.51,0.085-0.101
			c0.994,16.789-9.696,25.147-27.458,21.365c-14.444-3.075-25.409-10.515-35.018-21.24c-7.752-8.652-18.107-15.292-27.47-22.644
			c-2.53-1.987-5.729-3.208-8.483-4.968c-14.927-9.549-17.689-23.92-7.375-38.03c25.63-35.063,71.52-45.752,116.197-27.307
			c40.563,16.746,73.06,43.097,100.543,74.914c5.713,6.613,8.872,16.347,9.943,24.997c1.651,13.326-9.004,19.517-22.44,14.354
			c-17.791-6.837-29.578-20.083-40.694-33.969C483.043,263.134,482.105,261.704,480.572,259.576z"/>
	</g>
	<path fill-rule="evenodd" clip-rule="evenodd" fill="#F9ED32" d="M373.814,292.388c28.388,16.792,55.5,10.464,58.179-7.414
		c5.415,3.326,10.586,6.646,15.92,9.721c2.832,1.632,5.821,3.172,8.952,4.18c19.665,6.334,29.585-0.062,30.345-19.395
		c0.037-0.925,0.102-1.85,0.167-3.038c8.619,7.018,16.297,14.233,25.048,20.033c5.266,3.489,12.015,5.697,18.432,6.847
		c11.232,2.011,19.138-4.126,20.249-14.797c0.457-4.39,0.076-8.854,0.076-14.634c38.31,46.605,65.479,97.657,86.676,151.795
		c-21.865,7.311-51.287-16.057-59.768-44.422c-0.348,3.857-0.04,6.002-0.833,9.256c-16.253,7.891-32.148-0.653-39.838-14.798
		c0.273,2.577,0.547,5.155,0.824,7.767c-23.162,14.348-48.055,8.071-68.923-17.461c2.404,11.997-3.422,18.544-19.101,21.007
		c-17.827,2.802-31.458-5.373-45.356-14.351c-20.936-13.526-25.479-33.807-28.488-55.027
		C375.237,309.631,374.72,301.526,373.814,292.388z"/>
	<path fill-rule="evenodd" clip-rule="evenodd" fill="#BCBEC0" d="M317.427,110.732c-13.634,2.025-17.301,10.814-18.653,20.991
		c-2.061,15.522-9.55,25.402-21.988,28.408c-13.535,3.27-32.936-3.33-41.108-14.108c-4.64-6.12-9.088-12.366-12.422-16.916
		c2.875-13.154,5.341-25.29,8.316-37.315c0.561-2.269,2.669-4.975,4.858-6.002C265.549,72.113,296.708,81.472,317.427,110.732z
		 M246.519,105.406c-0.035,10.801,7.408,18.495,18.055,18.665c10.749,0.172,20.583-8.989,20.334-18.939
		c-0.201-8.02-10.887-18.276-18.976-18.212C254.748,87.006,246.554,94.81,246.519,105.406z"/>
	<g>
		<path fill-rule="evenodd" clip-rule="evenodd" fill="#2E3192" d="M499.709,404.5c-0.574,1.659-1.124,3.326-1.729,4.975
			c-4.514,12.322-13.152,17.952-27.263,17.319c-26.821-1.202-46.88-14.034-62.749-33.159c-6.568-7.917-11.777-16.818-16.879-26.004
			c25.465,20.097,51.133,35.422,81.977,12.971c11.201,4.552,22.203,11.943,33.194,13.548c9.813,1.434,19.68-3.533,30.011-4.832
			c2.795-0.352,6.404-0.71,8.477,0.574c8.101,5.019,16.992,7.768,26.229,5.853c7.222-1.497,9.826,1.317,12.876,6.238
			c8.742,14.107,20.945,24.412,38.517,27.829c5.653,1.1,11.535,1.172,17.386,1.721c25.422,52.247,60.892,233.381,48.684,238.74
			c-3.854,1.524-13.25-11.95-15.702-20.327c-8.689-29.692-16.662-59.569-25.506-89.22c-8.17-27.396-17.021-54.66-33.134-79.134
			c-4.349-6.606-9.699-12.783-15.422-18.419c-9.331-9.187-21.225-12.452-34.521-10.074c-31.734,5.677-49.255-13.237-57.02-33.779
			c-1.888-4.994-3.421-10.104-5.118-15.162C501.247,404.273,500.479,404.387,499.709,404.5z"/>
		<path fill-rule="evenodd" clip-rule="evenodd" fill="#2E3192" d="M572.384,574.993c-1.22,32.854-9.252,61.303-27.89,87.518
			c-24.339,34.235-52.089,64.711-91.046,84.901c-31.321,16.232-64.659,23.723-102.63,19.391c2.758-5.481,4.354-10.494,7.45-14.493
			c15.84-20.45,37.533-34.909,59.159-49.368c1.273-0.852,3.134-1.127,4.765-1.288c28.786-2.843,53.164-14.98,75.22-31.633
			c30.594-23.1,52.374-52.578,69.459-85.349C568.296,581.936,569.926,579.294,572.384,574.993z"/>
		<path fill-rule="evenodd" clip-rule="evenodd" fill="#2E3192" d="M594.577,532.604c-56.496-22.392-96.599-59.361-132.594-102.452
			c16.544,1.986,29.817-0.731,38.029-14.345c6.426,10.958,12.253,22.294,19.42,32.834c16.348,24.045,35.718,45.412,62.943,59.633
			C591.413,512.995,591.339,522.489,594.577,532.604z"/>
	</g>
	<g>
		<path fill-rule="evenodd" clip-rule="evenodd" fill="#00AEEF" d="M418.243,697.539c1.15-12.468,6.85-22.708,15.168-31.219
			c12.236-12.523,25.454-24.216,38.449-36.076c1.874-1.711,4.713-2.794,7.312-3.469c35.322-9.153,59.178-31.431,78.123-59.376
			c1.938-2.859,3.848-5.735,6.077-9.058c3.154,0.985,6.214,1.939,9.195,2.87C560.962,620.766,470.227,701.305,418.243,697.539z"/>
		<path fill-rule="evenodd" clip-rule="evenodd" fill="#00AEEF" d="M509.948,533.89c16.973,8.061,33.023,15.684,49.294,23.41
			c-17.53,28.126-39.341,51.567-72.675,63.511c-11.39,4.081-14.123,2.322-13.056-9.1c1.36-14.549,10.823-25.453,19.761-36.489
			c2.861-3.533,5.816-7.116,9.329-10.05C512.967,556.517,518.089,546.857,509.948,533.89z"/>
		<path fill-rule="evenodd" clip-rule="evenodd" fill="#00AEEF" d="M526.902,451.763c12.831,6.325,26.079,7.037,39.915,4.965
			c2.26-0.337,5.817,1.604,7.406,3.495c11.636,13.856,17,30.043,20.138,48.823C563.634,497,544.37,475.445,526.902,451.763z"/>
	</g>
	<g>
		<path fill-rule="evenodd" clip-rule="evenodd" fill="#FBB040" d="M215.739,127.644c-29.936,27.959-30.312,43.149-25.15,88.725
			c-10.98-9.115-17.822-20.026-23.072-31.661c-12.428-27.543-9.347-54.539,4.801-80.813c3.709-6.89,7.617-7.995,14.748-4.104
			C199.458,106.554,207.83,116.918,215.739,127.644z"/>
		<path fill-rule="evenodd" clip-rule="evenodd" fill="#FBB040" d="M342.593,428.068c-1.554-13.28,6.359-22.907,20.18-25.863
			c29.034-6.21,62.33,6.067,68.071,37.219c0.637,3.449,0.514,7.021,0.899,12.922c-12.733-14.308-23.717-26.337-44.051-25.233
			c-21.947,1.192-27.68,16.479-34.763,31.273C352.044,458.517,343.807,438.442,342.593,428.068z"/>
		<path fill-rule="evenodd" clip-rule="evenodd" fill="#FBB040" d="M200.685,169.685c15.996-2.021,24.797-10.279,28.925-21.037
			c8.937,4.766,17.984,9.497,26.899,14.438c1.429,0.792,2.957,2.396,3.26,3.84c1.993,9.501-3.74,24.663-20.021,22.042
			C224.893,186.577,210.975,182.942,200.685,169.685z"/>
	</g>
	<path fill-rule="evenodd" clip-rule="evenodd" fill="#FFFFFF" d="M264.438,118.081c-7.609-0.21-12.887-5.479-12.748-12.725
		c0.132-6.866,6.36-12.595,13.444-12.365c6.869,0.223,12.632,6.499,12.283,13.378C277.072,113.167,271.413,118.273,264.438,118.081z
		"/>
</g>
</svg>
